<svg id="visual" viewBox="0 0 960 540" width="960" height="540" xmlns="http://www.w3.org/2000/svg" xmlns:xlink="http://www.w3.org/1999/xlink" version="1.1"><rect x="0" y="0" width="960" height="540" fill="#CBE4DE"></rect><path d="M0 224L107 239L213 135L320 136L427 219L533 269L640 201L747 150L853 239L960 253L960 541L853 541L747 541L640 541L533 541L427 541L320 541L213 541L107 541L0 541Z" fill="#cbe4de"></path><path d="M0 277L107 295L213 252L320 276L427 219L533 266L640 314L747 227L853 304L960 274L960 541L853 541L747 541L640 541L533 541L427 541L320 541L213 541L107 541L0 541Z" fill="#afc9c4"></path><path d="M0 345L107 342L213 316L320 263L427 256L533 257L640 255L747 340L853 353L960 348L960 541L853 541L747 541L640 541L533 541L427 541L320 541L213 541L107 541L0 541Z" fill="#94afab"></path><path d="M0 322L107 315L213 312L320 330L427 363L533 333L640 328L747 326L853 323L960 378L960 541L853 541L747 541L640 541L533 541L427 541L320 541L213 541L107 541L0 541Z" fill="#799693"></path><path d="M0 416L107 420L213 416L320 426L427 382L533 400L640 428L747 421L853 360L960 343L960 541L853 541L747 541L640 541L533 541L427 541L320 541L213 541L107 541L0 541Z" fill="#5f7e7b"></path><path d="M0 434L107 412L213 414L320 404L427 441L533 424L640 444L747 462L853 426L960 421L960 541L853 541L747 541L640 541L533 541L427 541L320 541L213 541L107 541L0 541Z" fill="#466665"></path><path d="M0 474L107 496L213 504L320 499L427 458L533 500L640 471L747 475L853 479L960 505L960 541L853 541L747 541L640 541L533 541L427 541L320 541L213 541L107 541L0 541Z" fill="#2e4f4f"></path></svg>