<svg id="visual" viewBox="0 0 900 600" width="900" height="600" xmlns="http://www.w3.org/2000/svg" xmlns:xlink="http://www.w3.org/1999/xlink" version="1.1"><rect x="0" y="0" width="900" height="600" fill="#CBE4DE"></rect><path d="M0 159L100 206L200 98L300 163L400 172L500 238L600 100L700 238L800 231L900 129L900 0L800 0L700 0L600 0L500 0L400 0L300 0L200 0L100 0L0 0Z" fill="#cbe4de"></path><path d="M0 129L100 193L200 178L300 151L400 196L500 202L600 122L700 108L800 114L900 95L900 0L800 0L700 0L600 0L500 0L400 0L300 0L200 0L100 0L0 0Z" fill="#a9c4bf"></path><path d="M0 112L100 100L200 77L300 87L400 100L500 84L600 135L700 66L800 125L900 65L900 0L800 0L700 0L600 0L500 0L400 0L300 0L200 0L100 0L0 0Z" fill="#89a5a1"></path><path d="M0 129L100 119L200 49L300 114L400 106L500 115L600 108L700 49L800 95L900 137L900 0L800 0L700 0L600 0L500 0L400 0L300 0L200 0L100 0L0 0Z" fill="#698785"></path><path d="M0 49L100 35L200 69L300 95L400 58L500 86L600 34L700 88L800 67L900 70L900 0L800 0L700 0L600 0L500 0L400 0L300 0L200 0L100 0L0 0Z" fill="#4b6a69"></path><path d="M0 55L100 32L200 26L300 25L400 57L500 35L600 22L700 33L800 50L900 58L900 0L800 0L700 0L600 0L500 0L400 0L300 0L200 0L100 0L0 0Z" fill="#2e4f4f"></path></svg>