<svg id="visual" viewBox="0 0 960 540" width="960" height="540" xmlns="http://www.w3.org/2000/svg" xmlns:xlink="http://www.w3.org/1999/xlink" version="1.1"><rect x="0" y="0" width="960" height="540" fill="#2C3333"></rect><path d="M0 202L10.7 222.3C21.3 242.7 42.7 283.3 64 298.7C85.3 314 106.7 304 128 303.8C149.3 303.7 170.7 313.3 192 297C213.3 280.7 234.7 238.3 256 237.7C277.3 237 298.7 278 320 291.7C341.3 305.3 362.7 291.7 384 268.2C405.3 244.7 426.7 211.3 448 211.3C469.3 211.3 490.7 244.7 512 248.7C533.3 252.7 554.7 227.3 576 224.8C597.3 222.3 618.7 242.7 640 270.8C661.3 299 682.7 335 704 350.2C725.3 365.3 746.7 359.7 768 356.2C789.3 352.7 810.7 351.3 832 337.5C853.3 323.7 874.7 297.3 896 298.2C917.3 299 938.7 327 949.3 341L960 355L960 541L949.3 541C938.7 541 917.3 541 896 541C874.7 541 853.3 541 832 541C810.7 541 789.3 541 768 541C746.7 541 725.3 541 704 541C682.7 541 661.3 541 640 541C618.7 541 597.3 541 576 541C554.7 541 533.3 541 512 541C490.7 541 469.3 541 448 541C426.7 541 405.3 541 384 541C362.7 541 341.3 541 320 541C298.7 541 277.3 541 256 541C234.7 541 213.3 541 192 541C170.7 541 149.3 541 128 541C106.7 541 85.3 541 64 541C42.7 541 21.3 541 10.7 541L0 541Z" fill="#2E4F4F" stroke-linecap="round" stroke-linejoin="miter"></path></svg>